<mxfile host="Electron" agent="Mozilla/5.0 (Macintosh; Intel Mac OS X 10_15_7) AppleWebKit/537.36 (KHTML, like Gecko) draw.io/26.0.4 Chrome/128.0.6613.186 Electron/32.2.5 Safari/537.36" version="26.0.4" pages="2">
  <diagram name="cognito" id="udQBn3V7G_QOvbyhqMFe">
    <mxGraphModel dx="1043" dy="732" grid="1" gridSize="10" guides="1" tooltips="1" connect="1" arrows="1" fold="1" page="1" pageScale="1" pageWidth="827" pageHeight="1169" math="0" shadow="0">
      <root>
        <mxCell id="0" />
        <mxCell id="1" parent="0" />
        <mxCell id="PoL8WFYdIpdwILyyTwsh-2" value="Browser&lt;div&gt;1. Get Initial Page&lt;/div&gt;&lt;div&gt;2. Login and store token&lt;/div&gt;&lt;div&gt;3. Put data&amp;nbsp;&lt;/div&gt;" style="rounded=0;whiteSpace=wrap;html=1;align=left;" vertex="1" parent="1">
          <mxGeometry x="80" y="280" width="110" height="120" as="geometry" />
        </mxCell>
        <mxCell id="PoL8WFYdIpdwILyyTwsh-3" value="S3 Bucket" style="rounded=0;whiteSpace=wrap;html=1;" vertex="1" parent="1">
          <mxGeometry x="590" y="175" width="90" height="60" as="geometry" />
        </mxCell>
        <mxCell id="PoL8WFYdIpdwILyyTwsh-8" value="Route 53" style="rounded=0;whiteSpace=wrap;html=1;" vertex="1" parent="1">
          <mxGeometry x="430" y="160" width="90" height="90" as="geometry" />
        </mxCell>
        <mxCell id="PoL8WFYdIpdwILyyTwsh-9" value="" style="endArrow=classic;startArrow=classic;html=1;rounded=0;entryX=0;entryY=0.5;entryDx=0;entryDy=0;exitX=1;exitY=0.5;exitDx=0;exitDy=0;" edge="1" parent="1" source="PoL8WFYdIpdwILyyTwsh-8" target="PoL8WFYdIpdwILyyTwsh-3">
          <mxGeometry width="50" height="50" relative="1" as="geometry">
            <mxPoint x="480" y="355" as="sourcePoint" />
            <mxPoint x="530" y="305" as="targetPoint" />
          </mxGeometry>
        </mxCell>
        <mxCell id="PoL8WFYdIpdwILyyTwsh-11" value="" style="endArrow=classic;startArrow=classic;html=1;rounded=0;exitX=1;exitY=0.25;exitDx=0;exitDy=0;entryX=0;entryY=0.5;entryDx=0;entryDy=0;" edge="1" parent="1" source="PoL8WFYdIpdwILyyTwsh-2" target="PoL8WFYdIpdwILyyTwsh-8">
          <mxGeometry width="50" height="50" relative="1" as="geometry">
            <mxPoint x="570" y="365" as="sourcePoint" />
            <mxPoint x="620" y="315" as="targetPoint" />
          </mxGeometry>
        </mxCell>
        <mxCell id="PoL8WFYdIpdwILyyTwsh-12" value="https://www.example.com/index.html" style="edgeLabel;html=1;align=center;verticalAlign=middle;resizable=0;points=[];" vertex="1" connectable="0" parent="PoL8WFYdIpdwILyyTwsh-11">
          <mxGeometry x="-0.2944" relative="1" as="geometry">
            <mxPoint x="25" y="-14" as="offset" />
          </mxGeometry>
        </mxCell>
        <mxCell id="PoL8WFYdIpdwILyyTwsh-13" value="API Gateway" style="rounded=0;whiteSpace=wrap;html=1;" vertex="1" parent="1">
          <mxGeometry x="430" y="420" width="90" height="90" as="geometry" />
        </mxCell>
        <mxCell id="PoL8WFYdIpdwILyyTwsh-18" value="Lambda service" style="rounded=0;whiteSpace=wrap;html=1;" vertex="1" parent="1">
          <mxGeometry x="591.5" y="435" width="110" height="60" as="geometry" />
        </mxCell>
        <mxCell id="PoL8WFYdIpdwILyyTwsh-19" value="" style="endArrow=classic;startArrow=classic;html=1;rounded=0;entryX=0;entryY=0.5;entryDx=0;entryDy=0;exitX=1;exitY=0.5;exitDx=0;exitDy=0;" edge="1" parent="1" source="PoL8WFYdIpdwILyyTwsh-13" target="PoL8WFYdIpdwILyyTwsh-18">
          <mxGeometry width="50" height="50" relative="1" as="geometry">
            <mxPoint x="810" y="375" as="sourcePoint" />
            <mxPoint x="900" y="376" as="targetPoint" />
          </mxGeometry>
        </mxCell>
        <mxCell id="PoL8WFYdIpdwILyyTwsh-20" value="DynamoDB" style="shape=cylinder3;whiteSpace=wrap;html=1;boundedLbl=1;backgroundOutline=1;size=15;" vertex="1" parent="1">
          <mxGeometry x="604" y="540" width="85" height="60" as="geometry" />
        </mxCell>
        <mxCell id="PoL8WFYdIpdwILyyTwsh-21" value="Cognito" style="rounded=0;whiteSpace=wrap;html=1;" vertex="1" parent="1">
          <mxGeometry x="430" y="310" width="90" height="60" as="geometry" />
        </mxCell>
        <mxCell id="PoL8WFYdIpdwILyyTwsh-22" value="" style="endArrow=classic;startArrow=classic;html=1;rounded=0;entryX=0;entryY=0.5;entryDx=0;entryDy=0;exitX=1;exitY=0.5;exitDx=0;exitDy=0;" edge="1" parent="1" source="PoL8WFYdIpdwILyyTwsh-2" target="PoL8WFYdIpdwILyyTwsh-21">
          <mxGeometry width="50" height="50" relative="1" as="geometry">
            <mxPoint x="810" y="330" as="sourcePoint" />
            <mxPoint x="880" y="330" as="targetPoint" />
          </mxGeometry>
        </mxCell>
        <mxCell id="PoL8WFYdIpdwILyyTwsh-29" value="POST https://www.example.com/login&lt;div&gt;(Response with token)&lt;/div&gt;" style="edgeLabel;html=1;align=center;verticalAlign=middle;resizable=0;points=[];" vertex="1" connectable="0" parent="PoL8WFYdIpdwILyyTwsh-22">
          <mxGeometry x="-0.1196" y="2" relative="1" as="geometry">
            <mxPoint x="14" y="2" as="offset" />
          </mxGeometry>
        </mxCell>
        <mxCell id="PoL8WFYdIpdwILyyTwsh-30" value="" style="endArrow=classic;html=1;rounded=0;entryX=0.5;entryY=0;entryDx=0;entryDy=0;entryPerimeter=0;exitX=0.5;exitY=1;exitDx=0;exitDy=0;" edge="1" parent="1" source="PoL8WFYdIpdwILyyTwsh-18" target="PoL8WFYdIpdwILyyTwsh-20">
          <mxGeometry width="50" height="50" relative="1" as="geometry">
            <mxPoint x="750" y="375" as="sourcePoint" />
            <mxPoint x="800" y="325" as="targetPoint" />
          </mxGeometry>
        </mxCell>
        <mxCell id="PoL8WFYdIpdwILyyTwsh-32" value="" style="endArrow=classic;startArrow=classic;html=1;rounded=0;entryX=0;entryY=0.25;entryDx=0;entryDy=0;exitX=1;exitY=0.75;exitDx=0;exitDy=0;" edge="1" parent="1" source="PoL8WFYdIpdwILyyTwsh-2" target="PoL8WFYdIpdwILyyTwsh-13">
          <mxGeometry width="50" height="50" relative="1" as="geometry">
            <mxPoint x="320" y="350" as="sourcePoint" />
            <mxPoint x="440" y="350" as="targetPoint" />
          </mxGeometry>
        </mxCell>
        <mxCell id="PoL8WFYdIpdwILyyTwsh-33" value="PUT https://www.example.com/data&amp;nbsp;&lt;div&gt;(Request with&amp;nbsp;&lt;span style=&quot;background-color: light-dark(#ffffff, var(--ge-dark-color, #121212)); color: light-dark(rgb(0, 0, 0), rgb(255, 255, 255));&quot;&gt;token)&lt;/span&gt;&lt;/div&gt;" style="edgeLabel;html=1;align=center;verticalAlign=middle;resizable=0;points=[];" vertex="1" connectable="0" parent="PoL8WFYdIpdwILyyTwsh-32">
          <mxGeometry x="-0.1196" y="2" relative="1" as="geometry">
            <mxPoint x="14" y="10" as="offset" />
          </mxGeometry>
        </mxCell>
        <mxCell id="PoL8WFYdIpdwILyyTwsh-34" value="" style="endArrow=classic;startArrow=classic;html=1;rounded=0;exitX=0.5;exitY=0;exitDx=0;exitDy=0;entryX=0.5;entryY=1;entryDx=0;entryDy=0;" edge="1" parent="1" source="PoL8WFYdIpdwILyyTwsh-13" target="PoL8WFYdIpdwILyyTwsh-21">
          <mxGeometry width="50" height="50" relative="1" as="geometry">
            <mxPoint x="580" y="395" as="sourcePoint" />
            <mxPoint x="630" y="345" as="targetPoint" />
          </mxGeometry>
        </mxCell>
        <mxCell id="PoL8WFYdIpdwILyyTwsh-35" value="Verify token" style="edgeLabel;html=1;align=center;verticalAlign=middle;resizable=0;points=[];" vertex="1" connectable="0" parent="PoL8WFYdIpdwILyyTwsh-34">
          <mxGeometry x="0.1371" relative="1" as="geometry">
            <mxPoint as="offset" />
          </mxGeometry>
        </mxCell>
      </root>
    </mxGraphModel>
  </diagram>
  <diagram id="B97CDipkbNTwnW2S5QXc" name="odds matching">
    <mxGraphModel dx="666" dy="769" grid="1" gridSize="10" guides="1" tooltips="1" connect="1" arrows="1" fold="1" page="1" pageScale="1" pageWidth="827" pageHeight="1169" math="0" shadow="0">
      <root>
        <mxCell id="0" />
        <mxCell id="1" parent="0" />
        <mxCell id="1jLBHyBfT4EE3GiDZfXg-1" value="Web App" style="rounded=0;whiteSpace=wrap;html=1;" vertex="1" parent="1">
          <mxGeometry x="230" y="160" width="90" height="240" as="geometry" />
        </mxCell>
        <mxCell id="1jLBHyBfT4EE3GiDZfXg-2" value="Player 1" style="shape=umlActor;verticalLabelPosition=bottom;verticalAlign=top;html=1;outlineConnect=0;" vertex="1" parent="1">
          <mxGeometry x="70" y="170" width="30" height="60" as="geometry" />
        </mxCell>
        <mxCell id="1jLBHyBfT4EE3GiDZfXg-3" value="Player 2" style="shape=umlActor;verticalLabelPosition=bottom;verticalAlign=top;html=1;outlineConnect=0;" vertex="1" parent="1">
          <mxGeometry x="70" y="330" width="30" height="60" as="geometry" />
        </mxCell>
        <mxCell id="1jLBHyBfT4EE3GiDZfXg-4" value="" style="endArrow=classic;html=1;rounded=0;exitX=1;exitY=0.3333333333333333;exitDx=0;exitDy=0;exitPerimeter=0;entryX=0;entryY=0.25;entryDx=0;entryDy=0;startArrow=classic;startFill=1;" edge="1" parent="1" source="1jLBHyBfT4EE3GiDZfXg-2" target="1jLBHyBfT4EE3GiDZfXg-1">
          <mxGeometry width="50" height="50" relative="1" as="geometry">
            <mxPoint x="350" y="420" as="sourcePoint" />
            <mxPoint x="400" y="370" as="targetPoint" />
          </mxGeometry>
        </mxCell>
        <mxCell id="1jLBHyBfT4EE3GiDZfXg-12" value="Offer bet" style="edgeLabel;html=1;align=center;verticalAlign=middle;resizable=0;points=[];" vertex="1" connectable="0" parent="1jLBHyBfT4EE3GiDZfXg-4">
          <mxGeometry x="-0.0753" y="4" relative="1" as="geometry">
            <mxPoint as="offset" />
          </mxGeometry>
        </mxCell>
        <mxCell id="1jLBHyBfT4EE3GiDZfXg-5" value="" style="endArrow=classic;html=1;rounded=0;exitX=1;exitY=0.3333333333333333;exitDx=0;exitDy=0;exitPerimeter=0;entryX=0;entryY=0.75;entryDx=0;entryDy=0;startArrow=classic;startFill=1;" edge="1" parent="1" source="1jLBHyBfT4EE3GiDZfXg-3" target="1jLBHyBfT4EE3GiDZfXg-1">
          <mxGeometry width="50" height="50" relative="1" as="geometry">
            <mxPoint x="110" y="200" as="sourcePoint" />
            <mxPoint x="220" y="280" as="targetPoint" />
          </mxGeometry>
        </mxCell>
        <mxCell id="1jLBHyBfT4EE3GiDZfXg-13" value="Offer bet" style="edgeLabel;html=1;align=center;verticalAlign=middle;resizable=0;points=[];" vertex="1" connectable="0" parent="1jLBHyBfT4EE3GiDZfXg-5">
          <mxGeometry x="-0.2435" y="2" relative="1" as="geometry">
            <mxPoint as="offset" />
          </mxGeometry>
        </mxCell>
        <mxCell id="1jLBHyBfT4EE3GiDZfXg-6" value="API&lt;div&gt;Gateway&lt;/div&gt;" style="rounded=0;whiteSpace=wrap;html=1;" vertex="1" parent="1">
          <mxGeometry x="400" y="160" width="90" height="240" as="geometry" />
        </mxCell>
        <mxCell id="1jLBHyBfT4EE3GiDZfXg-7" value="" style="endArrow=classic;html=1;rounded=0;exitX=1;exitY=0.25;exitDx=0;exitDy=0;entryX=0;entryY=0.25;entryDx=0;entryDy=0;" edge="1" parent="1" source="1jLBHyBfT4EE3GiDZfXg-1" target="1jLBHyBfT4EE3GiDZfXg-6">
          <mxGeometry width="50" height="50" relative="1" as="geometry">
            <mxPoint x="350" y="420" as="sourcePoint" />
            <mxPoint x="400" y="370" as="targetPoint" />
          </mxGeometry>
        </mxCell>
        <mxCell id="1jLBHyBfT4EE3GiDZfXg-8" value="SQS Queue" style="rounded=0;whiteSpace=wrap;html=1;" vertex="1" parent="1">
          <mxGeometry x="540" y="160" width="90" height="70" as="geometry" />
        </mxCell>
        <mxCell id="1jLBHyBfT4EE3GiDZfXg-9" value="Matching Engine&lt;div&gt;(EC2/ECS/Lambda)&lt;/div&gt;" style="rounded=0;whiteSpace=wrap;html=1;" vertex="1" parent="1">
          <mxGeometry x="720" y="210" width="120" height="60" as="geometry" />
        </mxCell>
        <mxCell id="1jLBHyBfT4EE3GiDZfXg-10" value="SNS Queue&lt;div&gt;(Error Alert)&lt;/div&gt;" style="rounded=0;whiteSpace=wrap;html=1;" vertex="1" parent="1">
          <mxGeometry x="540" y="250" width="90" height="60" as="geometry" />
        </mxCell>
        <mxCell id="1jLBHyBfT4EE3GiDZfXg-11" value="" style="endArrow=classic;html=1;rounded=0;exitX=0.989;exitY=0.217;exitDx=0;exitDy=0;entryX=0;entryY=0.5;entryDx=0;entryDy=0;exitPerimeter=0;" edge="1" parent="1" source="1jLBHyBfT4EE3GiDZfXg-6" target="1jLBHyBfT4EE3GiDZfXg-8">
          <mxGeometry width="50" height="50" relative="1" as="geometry">
            <mxPoint x="330" y="230" as="sourcePoint" />
            <mxPoint x="410" y="230" as="targetPoint" />
          </mxGeometry>
        </mxCell>
        <mxCell id="1jLBHyBfT4EE3GiDZfXg-14" value="SNS Queue&lt;div&gt;(Matching Alert)&lt;/div&gt;" style="rounded=0;whiteSpace=wrap;html=1;" vertex="1" parent="1">
          <mxGeometry x="650" y="310" width="90" height="60" as="geometry" />
        </mxCell>
        <mxCell id="1jLBHyBfT4EE3GiDZfXg-15" value="DB" style="shape=cylinder3;whiteSpace=wrap;html=1;boundedLbl=1;backgroundOutline=1;size=15;" vertex="1" parent="1">
          <mxGeometry x="780" y="310" width="60" height="60" as="geometry" />
        </mxCell>
        <mxCell id="1jLBHyBfT4EE3GiDZfXg-16" value="" style="endArrow=classic;html=1;rounded=0;exitX=0;exitY=0.75;exitDx=0;exitDy=0;entryX=1;entryY=0.75;entryDx=0;entryDy=0;" edge="1" parent="1" source="1jLBHyBfT4EE3GiDZfXg-6" target="1jLBHyBfT4EE3GiDZfXg-1">
          <mxGeometry width="50" height="50" relative="1" as="geometry">
            <mxPoint x="330" y="230" as="sourcePoint" />
            <mxPoint x="410" y="230" as="targetPoint" />
          </mxGeometry>
        </mxCell>
        <mxCell id="1jLBHyBfT4EE3GiDZfXg-17" value="" style="endArrow=classic;startArrow=classic;html=1;rounded=0;entryX=0.5;entryY=1;entryDx=0;entryDy=0;" edge="1" parent="1" source="1jLBHyBfT4EE3GiDZfXg-15" target="1jLBHyBfT4EE3GiDZfXg-9">
          <mxGeometry width="50" height="50" relative="1" as="geometry">
            <mxPoint x="560" y="440" as="sourcePoint" />
            <mxPoint x="610" y="390" as="targetPoint" />
          </mxGeometry>
        </mxCell>
        <mxCell id="1jLBHyBfT4EE3GiDZfXg-19" value="" style="endArrow=classic;html=1;rounded=0;exitX=0.5;exitY=1;exitDx=0;exitDy=0;entryX=0.5;entryY=0;entryDx=0;entryDy=0;" edge="1" parent="1" source="1jLBHyBfT4EE3GiDZfXg-8" target="1jLBHyBfT4EE3GiDZfXg-10">
          <mxGeometry width="50" height="50" relative="1" as="geometry">
            <mxPoint x="499" y="222" as="sourcePoint" />
            <mxPoint x="630" y="205" as="targetPoint" />
          </mxGeometry>
        </mxCell>
        <mxCell id="1jLBHyBfT4EE3GiDZfXg-20" value="" style="endArrow=classic;html=1;rounded=0;exitX=0;exitY=0.5;exitDx=0;exitDy=0;" edge="1" parent="1" source="1jLBHyBfT4EE3GiDZfXg-10" target="1jLBHyBfT4EE3GiDZfXg-6">
          <mxGeometry width="50" height="50" relative="1" as="geometry">
            <mxPoint x="620" y="420" as="sourcePoint" />
            <mxPoint x="510" y="310" as="targetPoint" />
          </mxGeometry>
        </mxCell>
        <mxCell id="1jLBHyBfT4EE3GiDZfXg-21" value="" style="endArrow=classic;html=1;rounded=0;exitX=0.25;exitY=1;exitDx=0;exitDy=0;entryX=0.75;entryY=0;entryDx=0;entryDy=0;" edge="1" parent="1" source="1jLBHyBfT4EE3GiDZfXg-9" target="1jLBHyBfT4EE3GiDZfXg-14">
          <mxGeometry width="50" height="50" relative="1" as="geometry">
            <mxPoint x="550" y="290" as="sourcePoint" />
            <mxPoint x="500" y="290" as="targetPoint" />
          </mxGeometry>
        </mxCell>
        <mxCell id="1jLBHyBfT4EE3GiDZfXg-22" value="" style="endArrow=classic;html=1;rounded=0;entryX=0;entryY=0.5;entryDx=0;entryDy=0;" edge="1" parent="1" source="1jLBHyBfT4EE3GiDZfXg-8" target="1jLBHyBfT4EE3GiDZfXg-9">
          <mxGeometry width="50" height="50" relative="1" as="geometry">
            <mxPoint x="620" y="420" as="sourcePoint" />
            <mxPoint x="670" y="370" as="targetPoint" />
          </mxGeometry>
        </mxCell>
        <mxCell id="1jLBHyBfT4EE3GiDZfXg-23" value="" style="endArrow=classic;html=1;rounded=0;exitX=0;exitY=0.5;exitDx=0;exitDy=0;entryX=1;entryY=0.75;entryDx=0;entryDy=0;" edge="1" parent="1" source="1jLBHyBfT4EE3GiDZfXg-14" target="1jLBHyBfT4EE3GiDZfXg-6">
          <mxGeometry width="50" height="50" relative="1" as="geometry">
            <mxPoint x="550" y="290" as="sourcePoint" />
            <mxPoint x="500" y="290" as="targetPoint" />
          </mxGeometry>
        </mxCell>
      </root>
    </mxGraphModel>
  </diagram>
</mxfile>
